<?xml version="1.0" standalone="no"?><!DOCTYPE svg PUBLIC "-//W3C//DTD SVG 1.1//EN" "http://www.w3.org/Graphics/SVG/1.1/DTD/svg11.dtd"><svg t="1630592866284" class="icon" viewBox="0 0 1024 1024" version="1.1" xmlns="http://www.w3.org/2000/svg" p-id="1054" xmlns:xlink="http://www.w3.org/1999/xlink" width="200" height="200"><defs><style type="text/css"></style></defs><path d="M512 32a480 480 0 1 0 480 480A480 480 0 0 0 512 32z m414.54545438 458.18181844h-87.27272719A327.27272719 327.27272719 0 0 0 533.81818156 185.81818156v-87.27272719A414.54545438 414.54545438 0 0 1 926.54545438 490.18181844zM512 773.81818156a261.81818156 261.81818156 0 1 1 261.81818156-261.81818156 261.81818156 261.81818156 0 0 1-261.81818156 261.81818156zM97.45454562 512A414.54545438 414.54545438 0 0 1 468.36363594 99.85454562v87.27272719a327.27272719 327.27272719 0 1 0 231.92727281 591.27272719l62.4 62.4A414.54545438 414.54545438 0 0 1 97.45454562 512z m714.10909032 286.03636406l-61.74545438-61.74545531a327.27272719 327.27272719 0 0 0 87.27272719-180.65454469h87.27272719a412.36363594 412.36363594 0 0 1-112.8 242.4z" p-id="1055"></path></svg>