<?xml version="1.0" standalone="no"?><!DOCTYPE svg PUBLIC "-//W3C//DTD SVG 1.1//EN" "http://www.w3.org/Graphics/SVG/1.1/DTD/svg11.dtd"><svg t="1630592861074" class="icon" viewBox="0 0 1191 1024" version="1.1" xmlns="http://www.w3.org/2000/svg" p-id="923" xmlns:xlink="http://www.w3.org/1999/xlink" width="232.6171875" height="200"><defs><style type="text/css"></style></defs><path d="M869.05244375 389.36178406a33.47990062 33.47990062 0 1 0 33.65845969 33.47990063A33.47990062 33.47990062 0 0 0 869.05244375 389.36178406z m185.25545156-27.8999175c-37.38588937-89.27973563-113.83166344-155.12354063-218.73535312-192.39783094l28.0115175-93.52052249A33.85933969 33.85933969 0 0 0 816.8907575 35.14443219L590.05326969 143.84251062c-258.464835 6.24958125-439.21165969 133.47320531-446.39867906 334.79900907-34.41733781-9.59757187-44.63986781-2.23199344-44.63986782-22.31993438a87.87358031 87.87358031 0 0 1 30.95774813-51.33584812 33.97093969 33.97093969 0 0 0-48.0771375-47.9878575A163.09175719 163.09175719 0 0 0 32.05492063 478.64151969c0 64.50460875 60.26382187 66.95980219 111.59966999 66.95980125 16.15963219 92.18132719 93.7437225 162.93551813 153.33794625 211.14657562v117.17965313a118.13941031 118.13941031 0 0 0 113.31830438 117.84925125h58.2103875a116.443095 116.443095 0 0 0 108.43023937-83.25335344c13.03484156 0.89279719 26.00272312-0.22319906 38.88132469-0.2232s25.93576313 2.00879437 38.88132469 1.11599719a115.66189781 115.66189781 0 0 0 108.40791937 82.36055625h76.31185407A106.309845 106.309845 0 0 0 947.17221219 880.40033v-111.59966906a353.07903469 353.07903469 0 0 0 94.97131875-115.84045781 113.02814531 113.02814531 0 0 0 106.24288594-112.49246625v-67.85259938a113.25134438 113.25134438 0 0 0-94.19012157-111.15327094z m26.20360219 179.00587031A48.36729656 48.36729656 0 0 1 1036.45194781 590.24118875h-44.63986781c-20.93609813 64.72780875-51.89384625 91.51172906-111.59967 133.91960438v156.23953687a40.57764 40.57764 0 0 1-40.77851906 44.41666875l-76.31185407-0.66959813a51.33584812 51.33584812 0 0 1-45.30946593-51.55904718v-44.86306688a461.66551313 461.66551313 0 0 1-101.97977813 11.38316625 448.6306725 448.6306725 0 0 1-101.97977812-11.82956531v45.30946594a51.33584812 51.33584812 0 0 1-45.33178594 51.55904718l-58.2103875 0.66959813a50.75553 50.75553 0 0 1-45.33178594-50.88944906V724.16079312C281.79266187 662.78097406 210.61439281 602.74035219 210.61439281 500.96145313c0-170.52429563 164.92199156-273.19599094 357.1189425-290.15914032 45.15322594 0 209.22706031-83.03015438 209.22706031-83.03015437l-46.40314218 154.67714156a33.92629969 33.92629969 0 0 0 22.8332925 42.18467531 36.93949031 36.93949031 0 0 0 9.75381093 1.33919625 33.85933969 33.85933969 0 0 0 32.56478344-24.10552875l20.44506-68.2989975A267.68296781 267.68296781 0 0 1 991.81208 434.00165187h44.63986781a44.17114969 44.17114969 0 0 1 44.63986782 44.63986782z" p-id="924"></path></svg>