<?xml version="1.0" standalone="no"?><!DOCTYPE svg PUBLIC "-//W3C//DTD SVG 1.1//EN" "http://www.w3.org/Graphics/SVG/1.1/DTD/svg11.dtd"><svg t="1630592868920" class="icon" viewBox="0 0 1024 1024" version="1.1" xmlns="http://www.w3.org/2000/svg" p-id="1185" xmlns:xlink="http://www.w3.org/1999/xlink" width="200" height="200"><defs><style type="text/css"></style></defs><path d="M971.91999969 531.66000031l0 0.42c0 6.40000031-3.19999969 11.86000031-7.90000032 15.52000031L585.24000031 926.37999969c-7.62 7.62-19.96000031 7.62-27.61999968 0-7.62-7.63999969-7.62-19.99999969 0-27.61999969l374.29999968-374.29999969 0-132.37999968c0-11.04 8.98000031-19.99999969 19.99999969-19.99999969 11.05999969 0 19.99999969 8.95999969 19.99999969 19.99999969l0 139.45999968C971.91999969 531.57999969 971.91999969 531.60000031 971.91999969 531.66000031zM428.12 963.5c-0.64000031 0.96-1.06000031 2.04-1.90000031 2.88-3.94000031 3.91999969-9.13999969 5.74000031-14.29999969 5.62000031-5.16 0.12-10.36000031-1.69999969-14.29999969-5.62000031-0.84-0.84-1.24000031-1.92-1.90000031-2.88L60.5 628.26000031c-0.96-0.64000031-2.02000031-1.06000031-2.88-1.90000031C53.67999969 622.41999969 51.90000031 617.24 51.99999969 612.08c-0.12-5.16 1.68-10.36000031 5.62000031-14.29999969 0.85999969-0.84 1.92-1.24000031 2.88-1.90000031L516.42000031 139.95999969c3.66-4.68 9.10000031-7.90000031 15.49999969-7.90000032l0.42 0c0.04000031 0 0.07999969 0 0.12 0l80.58 0c2.65999969-30.04000031 14.92000031-56.4 33.40000031-73.66000031l0.31999969 0.36c3.9-4.14 9.25999969-6.70000031 15.16000031-6.70000031 11.83999969 0 21.43999969 10.24000031 21.43999969 22.86 0 7.5-3.6 13.81999969-8.82 17.98000031-9.58000031 8.83999969-16.39999969 22.78000031-18.67999969 39.16000031l95.50000032 0c0.04000031 0 0.07999969 0 0.16000031 0l0.40000031 0c6.40000031 0 11.88 3.19999969 15.49999969 7.90000032l116.59999969 116.59999968c4.68 3.66 7.90000031 9.12 7.90000031 15.52000032l0 0.42c0 0.04000031 0 0.07999969 0 0.12l0 218.89999968c0 0.04000031 0 0.07999969 0 0.13999969l0 0.42c0 6.40000031-3.19999969 11.86000031-7.90000031 15.49999969L428.12 963.5zM851.91999969 279.69999969l-107.62000032-107.62000031-84.25999968-1e-8c3.52000031 8.88 8.47999969 16.44 14.50000031 22.00000032l0 0c0.82000031 0.66 1.84000031 1.06000031 2.53999969 1.84000031l0.36-0.36c20.82 19.45999969 34.5 50.16 34.5 85.08 0 0.84-0.19999969 1.57999969-0.24 2.4 23.94 13.81999969 40.24000031 39.40000031 40.24000031 69.04000031 0 44.17999969-35.82 79.99999969-79.99999969 79.99999969s-79.99999969-35.82-79.99999969-79.99999969c0-42.94000031 33.9-77.7 76.39999969-79.63999968-1.8-17.76-8.82-32.95999969-18.97999968-42.36-0.82000031-0.66-1.84000031-1.06000031-2.58-1.84000032L646.46 228.60000031c-14.88-13.90000031-25.86-33.70000031-31.06000031-56.52l-75.85999969 0-439.99999969 439.99999969 312.37999969 312.37999969 439.99999969-439.99999969L851.91999969 279.69999969zM649.34 331.22c4.96000031-4.57999969 9.01999969-10.74 12.34000031-17.65999969-17.1 4.56-29.76 19.99999969-29.76 38.50000031 0 22.08 17.92000031 40.00000031 40.00000032 40.00000032 22.09999969 0 40.00000031-17.92000031 40.00000031-40.00000032 0-9.46000031-3.40000031-18.01999969-8.89999969-24.88000031-12.3 30.9-25.93999969 38.17999969-25.93999969 38.17999969-3.85999969 4.14-9.22000031 6.67999969-15.16000031 6.67999969-11.83999969 0-21.40000031-10.24000031-21.40000031-22.86C640.52 341.72 644.10000031 335.40000031 649.34 331.22zM277.64 577.77999969c7.63999969-7.62 19.99999969-7.62 27.61999969 0l140.98000031 140.98000031c7.62 7.62 7.62 19.98 0 27.61999969-7.62 7.62-19.99999969 7.62-27.61999969 0l-140.98000031-140.98000031C270.02 597.78000031 270.02 585.42000031 277.64 577.77999969zM357.63999969 497.78c7.63999969-7.62 19.99999969-7.62 27.61999968 0l140.98000032 140.98000031c7.60000031 7.62 7.60000031 19.98 0 27.61999969-7.62 7.62-19.99999969 7.62-27.61999969 0l-140.98000031-140.98000031C350.01999969 517.77999969 350.01999969 505.41999969 357.63999969 497.78z" p-id="1186"></path></svg>